<svg width="84" height="84" viewBox="0 0 84 84" fill="none" xmlns="http://www.w3.org/2000/svg">
<path d="M41.6667 54.1667C42.8472 54.1667 43.8368 53.7674 44.6354 52.9688C45.434 52.1701 45.8333 51.1806 45.8333 50C45.8333 48.8194 45.434 47.8299 44.6354 47.0313C43.8368 46.2326 42.8472 45.8333 41.6667 45.8333C40.4861 45.8333 39.4965 46.2326 38.6979 47.0313C37.8993 47.8299 37.5 48.8194 37.5 50C37.5 51.1806 37.8993 52.1701 38.6979 52.9688C39.4965 53.7674 40.4861 54.1667 41.6667 54.1667ZM37.5 37.5H45.8333V12.5H37.5V37.5ZM0 83.3333V8.33333C0 6.04167 0.815972 4.07986 2.44792 2.44792C4.07986 0.815972 6.04167 0 8.33333 0H75C77.2917 0 79.2535 0.815972 80.8854 2.44792C82.5174 4.07986 83.3333 6.04167 83.3333 8.33333V58.3333C83.3333 60.625 82.5174 62.5868 80.8854 64.2188C79.2535 65.8507 77.2917 66.6667 75 66.6667H16.6667L0 83.3333ZM13.125 58.3333H75V8.33333H8.33333V63.0208L13.125 58.3333Z" fill="#434343"/>
</svg>
