<svg width="32" height="55" viewBox="0 0 32 55" fill="none" xmlns="http://www.w3.org/2000/svg">
<path d="M24 49.5H5.33333C3.86667 49.5 2.61111 48.9615 1.56667 47.8844C0.522222 46.8073 0 45.5125 0 44V13.75H5.33333V44H24V49.5ZM14.6667 11C13.2 11 11.9444 10.4615 10.9 9.38438C9.85556 8.30729 9.33333 7.0125 9.33333 5.5C9.33333 3.9875 9.85556 2.69271 10.9 1.61563C11.9444 0.538542 13.2 0 14.6667 0C16.1333 0 17.3889 0.538542 18.4333 1.61563C19.4778 2.69271 20 3.9875 20 5.5C20 7.0125 19.4778 8.30729 18.4333 9.38438C17.3889 10.4615 16.1333 11 14.6667 11ZM26.6667 55V41.25H13.3333C11.8667 41.25 10.6111 40.7115 9.56667 39.6344C8.52222 38.5573 8 37.2625 8 35.75V20.625C8 18.7 8.64444 17.0729 9.93333 15.7438C11.2222 14.4146 12.8 13.75 14.6667 13.75C16.5333 13.75 18.1111 14.4146 19.4 15.7438C20.6889 17.0729 21.3333 18.7 21.3333 20.625V33H26.6667C28.1333 33 29.3889 33.5385 30.4333 34.6156C31.4778 35.6927 32 36.9875 32 38.5V55H26.6667Z" fill="black"/>
</svg>
