<svg width="16" height="16" viewBox="0 0 16 16" fill="none" xmlns="http://www.w3.org/2000/svg">
<g clip-path="url(#clip0_153_488)">
<mask id="mask0_153_488" style="mask-type:luminance" maskUnits="userSpaceOnUse" x="0" y="0" width="16" height="16">
<path d="M16 0H0V16H16V0Z" fill="white"/>
</mask>
<g mask="url(#mask0_153_488)">
<path d="M4.96627 6.5C5.04205 6.5352 5.0926 6.57045 5.1494 6.63445C5.21255 6.6985 5.2789 6.7593 5.3452 6.82015C5.43995 6.9034 5.51885 6.98985 5.5978 7.0891C5.58205 7.1115 5.58205 7.1115 5.56625 7.1339C5.3515 7.43165 5.19045 7.739 5.0673 8.08795C5.05155 8.1296 5.05155 8.1296 5.0389 8.1712C4.82732 8.8083 4.80838 9.5671 4.99153 10.2138C4.99469 10.2298 5.001 10.249 5.0073 10.265C5.05785 10.4539 5.13045 10.6332 5.21255 10.8125C5.2189 10.8285 5.2252 10.8445 5.2347 10.8637C5.27255 10.9501 5.27255 10.9501 5.3452 11.0077C5.3515 10.9885 5.35785 10.9726 5.3673 10.9534C5.6294 10.3035 6.00515 9.74315 6.482 9.2405C6.4946 9.2277 6.50725 9.2149 6.5167 9.2021C6.72515 8.9844 6.72515 8.9844 6.8609 8.90755C6.87355 8.92035 6.88935 8.93315 6.9051 8.946C7.363 9.33655 7.8777 9.51585 8.4777 9.47105C8.92925 9.4198 9.3113 9.2213 9.63975 8.90755C10.3534 9.4006 10.7797 10.2074 11.1302 10.9822C11.146 10.9822 11.1649 10.9822 11.1807 10.9822C11.626 10.1498 11.7301 9.2085 11.4743 8.29285C11.3575 7.9055 11.1902 7.5309 10.9597 7.19795C10.9281 7.1403 10.9281 7.1403 10.9281 7.03785C10.9691 6.98345 10.9692 6.98345 11.0292 6.9226C11.0607 6.8906 11.0607 6.8906 11.0923 6.85855C11.1144 6.83615 11.1365 6.81375 11.1617 6.79135C11.1807 6.76895 11.2028 6.7465 11.2249 6.7241C11.4049 6.5448 11.4049 6.5448 11.5344 6.5C12.2607 7.3548 12.5449 8.49135 12.4944 9.5991C12.4059 10.7965 11.847 11.8209 11.026 12.6597C11.0039 12.6822 10.9818 12.7046 10.9565 12.7302C10.8239 12.8646 10.6849 12.9863 10.5365 13.108C10.4512 13.1784 10.3723 13.2521 10.2902 13.3289C10.2618 13.3577 10.2302 13.3865 10.2018 13.4153C10.186 13.4281 10.1734 13.441 10.1576 13.457C10.0945 13.5146 10.0313 13.5722 9.96495 13.6299C9.90815 13.6811 9.84815 13.7323 9.7913 13.7867C9.7155 13.8572 9.63975 13.9244 9.56395 13.9916C9.44395 14.0973 9.3271 14.2029 9.21025 14.3118C8.89765 14.5999 8.89765 14.5999 8.75555 14.7215C8.73345 14.7407 8.71135 14.76 8.6861 14.7824C8.664 14.8016 8.6387 14.824 8.61345 14.8432C8.59135 14.8624 8.56925 14.8816 8.54715 14.904C8.41135 15.0001 8.29455 15.0129 8.1335 14.9905C7.9472 14.9489 7.8051 14.7728 7.6693 14.6447C7.61875 14.5967 7.5651 14.5487 7.51455 14.5007C7.50195 14.4879 7.4893 14.4751 7.47665 14.4655C7.38825 14.3854 7.303 14.3053 7.2146 14.2285C7.15775 14.1773 7.1009 14.1261 7.0472 14.0749C6.94615 13.982 6.84195 13.8924 6.73775 13.8027C6.59565 13.6811 6.4599 13.5562 6.32095 13.4282C6.20725 13.3225 6.0936 13.2201 5.9736 13.1176C4.94416 12.234 4.14209 11.1614 4.01263 9.74955C4 9.5959 4 9.439 4 9.28535C4 9.26615 4 9.2469 4 9.2277C4 8.92035 4.01894 8.6226 4.0821 8.3185C4.08526 8.30245 4.08842 8.28325 4.09158 8.26725C4.22736 7.63655 4.53681 6.98025 4.96627 6.5Z" fill="#4C76FF"/>
<path d="M8.2425 1C8.26635 1 8.2936 1 8.3209 1C8.72975 1 9.12505 1.01461 9.5305 1.07596C9.5544 1.07888 9.5748 1.0818 9.59865 1.08473C11.0911 1.29215 12.4268 1.96995 13.5683 2.79382C13.6365 2.84056 13.708 2.89024 13.7762 2.93698C14.4577 3.41611 14.4577 3.41611 14.4986 3.72287C14.5122 3.93907 14.427 4.13773 14.2669 4.30718C14.134 4.42112 13.9806 4.49124 13.7966 4.5C13.4422 4.48832 13.2003 4.20784 12.972 4.00334C12.7199 3.7813 12.4677 3.5768 12.1747 3.38982C12.1542 3.37521 12.1338 3.36352 12.1133 3.34892C11.9021 3.2116 11.6874 3.08306 11.4591 2.96912C11.425 2.95451 11.391 2.93698 11.3603 2.91945C10.6924 2.57471 9.9428 2.36144 9.17615 2.24458C9.12505 2.23581 9.12505 2.23581 9.07395 2.22705C8.4742 2.15109 7.80635 2.15985 7.21345 2.26795C7.1862 2.27379 7.15895 2.27671 7.1317 2.28256C6.01745 2.48706 4.81121 2.89316 4.00705 3.6177C3.96957 3.64691 3.96957 3.64691 3.91505 3.64691C3.91505 3.66152 3.91505 3.67905 3.91505 3.69366C3.87757 3.7258 3.87757 3.72579 3.82305 3.76085C3.72764 3.83097 3.64245 3.904 3.55386 3.98289C3.54023 3.99165 3.53001 4.00334 3.51638 4.01503C3.46526 4.06177 3.41415 4.10559 3.36304 4.15234C3.18245 4.31302 2.98822 4.48832 2.70881 4.5C2.47029 4.4737 2.30333 4.36853 2.1568 4.20785C2.03414 4.05301 1.97962 3.88064 2.00688 3.69366C2.04436 3.55927 2.10229 3.45409 2.19769 3.34307C2.21473 3.32262 2.23518 3.29925 2.25221 3.2788C2.34081 3.19115 2.44303 3.12396 2.54866 3.05092C2.64066 2.98957 2.72926 2.92237 2.81785 2.85518C3.30852 2.49583 3.82986 2.18322 4.37846 1.89399C4.3955 1.88523 4.41253 1.87646 4.42957 1.86769C5.3019 1.40901 6.33435 1.12562 7.34975 1.02921C7.38385 1.02629 7.38385 1.0263 7.4179 1.02337C7.6905 1 7.9665 1 8.2425 1Z" fill="#4C76FF"/>
<path d="M10.5673 3.49172C10.6025 3.50657 10.6378 3.52143 10.6731 3.53925C11.2724 3.80366 11.8044 4.18986 12.2788 4.61766C12.2884 4.62955 12.3013 4.64143 12.3141 4.65331C12.4167 4.74541 12.4808 4.83454 12.5 4.96525C12.5 5.2148 12.5 5.2148 12.4135 5.32175C12.2917 5.43165 12.1923 5.4881 12.0224 5.5C11.7339 5.4881 11.5321 5.25935 11.3365 5.0841C10.4743 4.31761 9.37815 3.89872 8.1762 3.91061C6.93255 3.94031 5.9037 4.43347 5.01905 5.2148C4.70494 5.4881 4.70494 5.4881 4.48058 5.5C4.33634 5.49705 4.24019 5.4584 4.13121 5.3693C4.01582 5.2356 3.99018 5.1346 4.003 4.96525C4.05429 4.74838 4.22737 4.60578 4.40365 4.46615C4.44853 4.4305 4.4966 4.39188 4.54148 4.35623C4.9838 3.99378 5.471 3.69968 6.00305 3.46795C6.01905 3.46201 6.0351 3.4531 6.05435 3.44716C7.47105 2.82922 9.1666 2.85893 10.5673 3.49172Z" fill="#4C76FF"/>
<path d="M8.07305 10.6917C8.13415 10.7369 8.19145 10.7854 8.2487 10.834C8.264 10.8202 8.27925 10.8097 8.2945 10.7959C8.55795 10.5772 8.7718 10.4904 9.1345 10.5008C9.4056 10.5355 9.6118 10.6605 9.7836 10.8549C9.95925 11.084 10.0279 11.3304 9.98975 11.6116C9.90195 11.9865 9.7034 12.2503 9.4056 12.5141C9.37885 12.5384 9.35215 12.5627 9.3254 12.587C9.2414 12.6634 9.1574 12.7398 9.0734 12.8127C9.01615 12.8647 8.9589 12.9168 8.9054 12.9689C8.84815 13.0175 8.7947 13.0661 8.74125 13.1147C8.7145 13.1355 8.6916 13.1598 8.6649 13.1841C8.5389 13.2952 8.4167 13.3993 8.27925 13.5C8.15705 13.4618 8.0845 13.4167 7.9929 13.3334C7.96615 13.3125 7.94325 13.2882 7.91655 13.2674C7.8898 13.2431 7.85925 13.2153 7.83255 13.191C7.8058 13.1667 7.77525 13.139 7.74855 13.1147C7.68745 13.0591 7.62635 13.0071 7.5691 12.9515C7.508 12.896 7.4469 12.8404 7.3858 12.7884C6.5229 12.0177 6.5229 12.0177 6.5 11.4589C6.50765 11.1812 6.6069 10.959 6.8131 10.7507C7.18725 10.4696 7.6798 10.4036 8.07305 10.6917Z" fill="white"/>
<path d="M9.0833 6.81091C9.33985 7.05206 9.48305 7.34681 9.4997 7.69516C9.5064 8.06356 9.3931 8.37171 9.13995 8.64636C8.82015 8.92771 8.5137 9.01476 8.0973 8.99801C7.78085 8.97791 7.481 8.77026 7.2745 8.53916C7.0813 8.27456 6.968 7.95976 7.008 7.62816C7.05465 7.36691 7.1279 7.16261 7.30115 6.95831C7.3178 6.93821 7.3311 6.92146 7.34775 6.90136C7.81745 6.37886 8.557 6.38556 9.0833 6.81091Z" fill="#4C76FF"/>
<path d="M10.8975 5.86574C10.9471 5.90884 10.9471 5.90884 11 5.98274C10.924 6.05664 10.8447 6.13054 10.7687 6.20444C10.7422 6.22904 10.7157 6.25674 10.6893 6.28139C10.6529 6.31834 10.6133 6.35219 10.5769 6.38914C10.5538 6.41069 10.5306 6.43224 10.5075 6.45379C10.4447 6.49999 10.4447 6.49999 10.3885 6.49689C10.3026 6.45994 10.2331 6.40454 10.1604 6.35219C9.4928 5.88424 8.64665 5.65639 7.817 5.76724C7.1758 5.86269 6.6106 6.12129 6.10815 6.49999C5.8669 6.39839 5.6818 6.17979 5.5 6.00739C5.65205 5.66869 6.2602 5.44394 6.59735 5.30849C6.84195 5.21304 7.09315 5.14839 7.35095 5.09604C7.3708 5.09294 7.3906 5.08679 7.41045 5.08374C8.6268 4.83741 9.9324 5.14529 10.8975 5.86574Z" fill="#4C76FF"/>
</g>
</g>
<defs>
<clipPath id="clip0_153_488">
<rect width="16" height="16" rx="8" fill="white"/>
</clipPath>
</defs>
</svg>
