<?xml version="1.0" encoding="UTF-8"?>
<svg version="1.1" xmlns="http://www.w3.org/2000/svg" width="1024" height="1024">
<path d="M0 0 C3.006818 1.33999498 4.99762609 2.79845291 7.25 5.1875 C9.7520532 7.77527665 12.31588833 10.17352014 15.0625 12.5 C18.79822618 15.71141373 21.88672148 19.18623381 25 23 C24.38125 23.83917969 24.38125 23.83917969 23.75 24.6953125 C15.2963049 36.43236239 8.87569122 48.43539039 4 62 C3.42958984 63.58554687 3.42958984 63.58554687 2.84765625 65.203125 C-5.44434885 90.11043088 -6.23248887 119.72758376 1 145 C1.18723633 145.67224609 1.37447266 146.34449219 1.56738281 147.03710938 C3.67369148 154.40737081 6.49915873 161.41869443 9.6875 168.375 C9.98503174 169.0244458 10.28256348 169.6738916 10.58911133 170.34301758 C12.09458418 173.80220276 12.09458418 173.80220276 15 176 C15.27835693 175.28320068 15.55671387 174.56640137 15.84350586 173.82788086 C26.20512849 148.49144959 41.12370283 126.62959137 60 107 C60.47034668 106.50773926 60.94069336 106.01547852 61.42529297 105.50830078 C69.59356062 96.99404227 69.59356062 96.99404227 75 94 C75.55945313 94.4846875 76.11890625 94.969375 76.6953125 95.46875 C94.92978978 110.71300753 115.22477007 117.69823071 139 116 C156.86046059 114.04221874 172.02351883 106.23284328 185 94 C213.21701405 113.18756955 230.11882549 144.80926583 244 175 C244.66 175 245.32 175 246 175 C263.66458309 142.49537376 267.69456451 105.76626742 257.609375 70.03369141 C253.05594134 54.83733627 246.31518407 40.26557711 237.25 27.234375 C236 25 236 25 236 21 C237.66479492 18.83349609 237.66479492 18.83349609 239.98046875 16.5234375 C241.2324707 15.27046875 241.2324707 15.27046875 242.50976562 13.9921875 C243.39341797 13.12851562 244.27707031 12.26484375 245.1875 11.375 C246.05181641 10.50359375 246.91613281 9.6321875 247.80664062 8.734375 C254.91692669 1.69491937 254.91692669 1.69491937 260 0 C288.76878064 33.31534543 299.98651652 77.77416458 298 121 C294.47767778 167.6939426 272.42759832 207.760187 239.875 240.4375 C238.96911133 241.34894775 238.06322266 242.26039551 237.12988281 243.19946289 C231.82583671 248.44739929 226.33803919 253.28600625 220.51757812 257.95239258 C217.13966442 260.69973182 213.96724826 263.62714863 210.8125 266.625 C209.61667294 267.74823485 208.42006483 268.87063877 207.22265625 269.9921875 C206.66465332 270.51522461 206.10665039 271.03826172 205.53173828 271.57714844 C203.04563355 273.88652337 200.49010108 276.11110933 197.921875 278.328125 C195.58894926 280.35758073 193.29488755 282.427647 191 284.5 C188.01937279 287.18983431 185.02754767 289.86310364 182 292.5 C177.28298716 296.61081039 172.64361111 300.80667845 168 305 C155.57892181 316.21661 155.57892181 316.21661 150 321 C149.09894531 321.77988281 148.19789063 322.55976562 147.26953125 323.36328125 C146.31433594 324.17152344 145.35914063 324.97976563 144.375 325.8125 C143.49585938 326.56144531 142.61671875 327.31039063 141.7109375 328.08203125 C136.31749467 331.89785319 131.74215309 332.37618122 125.375 331.5234375 C118.03707594 329.90619766 112.35659374 322.94281192 107 318 C104.95936895 316.12387152 102.91716797 314.24945525 100.875 312.375 C100.36388672 311.90521729 99.85277344 311.43543457 99.32617188 310.95141602 C95.9169728 307.82320093 92.46481323 304.75305532 88.96875 301.72265625 C86.74675273 299.77840864 84.56144777 297.79663036 82.375 295.8125 C78.35081482 292.17715479 74.25488227 288.63866688 70.125 285.125 C64.51911806 280.35193105 59.06391376 275.44069627 53.65625 270.4453125 C49.17338582 266.31844047 44.57819806 262.33239406 39.92578125 258.3984375 C-0.88450692 223.81819332 -32.67025812 181.99724324 -37.80371094 126.93212891 C-38.21042037 120.85678028 -38.24393081 114.77444898 -38.25 108.6875 C-38.25100708 107.98368195 -38.25201416 107.27986389 -38.25305176 106.55471802 C-38.24144675 94.50854608 -37.45945785 82.8149387 -35 71 C-34.86078125 70.32807617 -34.7215625 69.65615234 -34.578125 68.96386719 C-29.21945714 44.3164759 -17.00275239 18.70302763 0 0 Z M84 158 C75.7609224 166.50186244 72.68322341 175.4591918 72.85546875 187.171875 C73.93103992 208.21818657 91.93975048 222.14675588 105.78515625 236.02539062 C108.26502562 238.51508515 110.73402986 241.01525075 113.203125 243.515625 C114.78580097 245.10482161 116.36911164 246.69338642 117.953125 248.28125 C118.68654114 249.02701294 119.41995728 249.77277588 120.17559814 250.5411377 C120.86691833 251.22945679 121.55823853 251.91777588 122.27050781 252.62695312 C122.87179504 253.23188599 123.47308228 253.83681885 124.09259033 254.46008301 C126.27035372 256.21826579 128.36883754 257.08400607 131 258 C140.84290755 248.90988425 150.54396566 239.69440921 160.04663086 230.24853516 C161.40225772 228.90456501 162.76237343 227.56510908 164.12670898 226.22998047 C176.57776777 214.04320954 186.78628593 202.24124201 187.5 183.875 C187.08360025 173.35396627 182.7769124 164.47810659 175.1875 157.28125 C168.27959213 151.59893869 161.26123069 149.65157604 152.375 150.0625 C142.62297254 151.14859919 137.00039976 155.37196193 130 162 C129.26394531 161.37351562 128.52789062 160.74703125 127.76953125 160.1015625 C126.79371094 159.28429687 125.81789063 158.46703125 124.8125 157.625 C123.84957031 156.81289063 122.88664062 156.00078125 121.89453125 155.1640625 C110.16279825 146.39296927 94.89748896 149.53418213 84 158 Z " fill="#FEFEFE" transform="translate(377,486)"/>
<path d="M0 0 C0.95448029 -0.00100708 1.90896057 -0.00201416 2.8923645 -0.00305176 C17.91612263 0.00765262 32.47962736 0.68384602 47.3125 3.25 C48.15039062 3.38390137 48.98828125 3.51780273 49.8515625 3.65576172 C104.55974899 12.49867979 153.61306961 41.52109699 195.47021484 76.71191406 C197.97293031 78.80137967 200.51886397 80.83567386 203.0625 82.875 C228.08439631 103.4273362 228.08439631 103.4273362 229.5625 116.453125 C230.03246964 125.79377154 226.87926949 134.27572076 221.02734375 141.52734375 C216.23756564 146.33894317 210.55798027 149.32688467 203.75 149.6875 C190.78774167 149.29355858 181.91055453 137.22978179 173.5625 128.5625 C164.31214705 118.98026953 155.01374642 110.19595348 144.3125 102.25 C143.55598145 101.67241943 142.79946289 101.09483887 142.02001953 100.49975586 C134.33338966 94.6344758 126.45355687 89.15320628 118.08935547 84.28759766 C116.85432974 83.56640236 115.62452062 82.8362293 114.39892578 82.09912109 C89.89494408 67.39199357 62.3761821 58.23688265 34.3125 53.25 C32.44464844 52.9096875 32.44464844 52.9096875 30.5390625 52.5625 C8.51213238 49.29252275 -15.92482999 49.67310857 -37.6875 54.25 C-38.66444824 54.45399414 -39.64139648 54.65798828 -40.64794922 54.86816406 C-81.58495805 63.64448644 -125.78413622 81.04274072 -155.359375 112 C-156.6875 113.25 -156.6875 113.25 -158.6875 113.25 C-158.6875 113.91 -158.6875 114.57 -158.6875 115.25 C-160.05517578 116.58544922 -160.05517578 116.58544922 -162.0078125 118.1796875 C-165.50504646 121.15072084 -168.7374433 124.27340455 -171.9296875 127.5703125 C-172.38724426 128.04063904 -172.84480103 128.51096558 -173.31622314 128.99554443 C-175.20980844 130.94221553 -177.10136099 132.8902374 -178.97314453 134.85791016 C-185.57591905 141.78176436 -192.73048706 149.23932548 -202.875 149.75 C-211.64163856 148.60027691 -217.7900126 144.17106995 -223.234375 137.296875 C-227.70008081 130.62458515 -229.67324052 123.30274175 -228.6875 115.25 C-227.35759295 109.55178514 -225.23168923 104.94083868 -221.6875 100.25 C-221.006875 99.321875 -220.32625 98.39375 -219.625 97.4375 C-216.46141373 93.7274761 -212.6326475 90.83017146 -208.8359375 87.796875 C-205.43994357 85.07579469 -202.16167553 82.22625734 -198.875 79.375 C-180.98147541 63.96166927 -161.82609663 50.56654325 -141.6875 38.25 C-141.07874023 37.87391602 -140.46998047 37.49783203 -139.84277344 37.11035156 C-107.80636242 17.44534999 -69.94158058 5.41268045 -32.6875 1.25 C-31.44383667 1.10860596 -31.44383667 1.10860596 -30.17504883 0.96435547 C-20.14014448 -0.02488914 -10.07385536 0.00738035 0 0 Z " fill="#FEFEFE" transform="translate(506.6875,264.75)"/>
<path d="M0 0 C1.38776257 0.65549498 2.77578328 1.31044371 4.1640625 1.96484375 C27.47998635 13.1161785 48.26858623 29.35134189 66.6875 47.375 C67.18088867 47.85066406 67.67427734 48.32632813 68.18261719 48.81640625 C72.09864991 52.74068325 74.66017139 56.44129043 75.3984375 62 C75.31666228 72.46722822 75.31666228 72.46722822 72 77 C67.22690686 81.56556735 63.32776487 84.00430231 56.75 84.4375 C45.46255669 84.04763765 37.61516715 74.31921148 30 67 C-3.66744541 34.74578285 -46.39311532 17.14333403 -93.2265625 17.59545898 C-141.71150923 18.81252146 -181.86518422 39.67739351 -216.40087891 72.48486328 C-228.58429956 84.02842185 -228.58429956 84.02842185 -237.375 84.5 C-243.03587607 84.33055881 -246.80531214 82.78906946 -251 79 C-255.5027206 73.34273566 -256.47713472 69.15702074 -256 62 C-254.00485901 52.86628117 -247.29188831 46.85112116 -240.3984375 41.02734375 C-238.56681173 39.47911284 -236.76707051 37.91099072 -234.9765625 36.31640625 C-217.78618841 21.11882728 -198.73147386 8.79373129 -178 -1 C-177.35160156 -1.30824707 -176.70320313 -1.61649414 -176.03515625 -1.93408203 C-120.79988945 -27.92633158 -54.63564679 -26.61301572 0 0 Z " fill="#FDFEFE" transform="translate(597,369)"/>
<path d="M0 0 C9.61191376 8.908603 14.93692759 19.93008759 15.52563477 32.90380859 C15.81104788 46.73271955 11.51781668 58.15195109 2.07421875 68.4453125 C-9.9185406 78.96776309 -21.38351983 82.16778977 -37.00634766 81.57714844 C-48.89046639 80.76088996 -60.11355173 73.05470829 -67.92578125 64.4453125 C-75.16299367 54.5240077 -79.46611815 42.82051918 -77.92578125 30.4453125 C-76.1570308 20.7277133 -73.44815129 13.01448267 -66.92578125 5.4453125 C-66.34054687 4.73890625 -65.7553125 4.0325 -65.15234375 3.3046875 C-47.56267865 -16.14042751 -19.77556279 -15.96485596 0 0 Z " fill="#FEFEFE" transform="translate(537.92578125,491.5546875)"/>
<path d="M0 0 C1.890625 1.7265625 1.890625 1.7265625 3.890625 4.7265625 C0.9891508 7.75152794 -1.92833091 10.75980689 -4.86181641 13.75366211 C-5.85760227 14.77461048 -6.84885691 15.79999872 -7.83544922 16.82983398 C-9.25363997 18.30860073 -10.68730746 19.77068665 -12.125 21.23046875 C-12.98383789 22.11549072 -13.84267578 23.0005127 -14.72753906 23.91235352 C-17.109375 25.7265625 -17.109375 25.7265625 -19.22436523 25.64648438 C-22.42262688 24.08566973 -25.12477101 21.83706108 -27.921875 19.6640625 C-53.10557544 0.78164801 -85.16956663 -8.51785188 -116.52734375 -4.04296875 C-140.79277111 -0.13753331 -162.05959886 10.35607526 -181.109375 25.7265625 C-190.20109509 21.5503658 -197.17748056 12.77313901 -204.109375 5.7265625 C-198.42030233 -8.01946713 -175.41371805 -17.14798028 -162.609375 -22.6484375 C-153.34089314 -26.46644176 -143.89559526 -29.15394552 -134.109375 -31.2734375 C-133.38411621 -31.43714844 -132.65885742 -31.60085938 -131.91162109 -31.76953125 C-85.84373241 -41.82448418 -36.45837625 -29.33571334 0 0 Z " fill="#FDFEFE" transform="translate(607.109375,456.2734375)"/>
</svg>
