<svg width="44" height="30" viewBox="0 0 44 30" fill="none" xmlns="http://www.w3.org/2000/svg">
<path d="M0 30V0H4V20H20V4H36C38.2 4 40.0833 4.78333 41.65 6.35C43.2167 7.91667 44 9.8 44 12V30H40V24H4V30H0ZM12 18C10.3333 18 8.91667 17.4167 7.75 16.25C6.58333 15.0833 6 13.6667 6 12C6 10.3333 6.58333 8.91667 7.75 7.75C8.91667 6.58333 10.3333 6 12 6C13.6667 6 15.0833 6.58333 16.25 7.75C17.4167 8.91667 18 10.3333 18 12C18 13.6667 17.4167 15.0833 16.25 16.25C15.0833 17.4167 13.6667 18 12 18ZM24 20H40V12C40 10.9 39.6083 9.95833 38.825 9.175C38.0417 8.39167 37.1 8 36 8H24V20ZM12 14C12.5667 14 13.0417 13.8083 13.425 13.425C13.8083 13.0417 14 12.5667 14 12C14 11.4333 13.8083 10.9583 13.425 10.575C13.0417 10.1917 12.5667 10 12 10C11.4333 10 10.9583 10.1917 10.575 10.575C10.1917 10.9583 10 11.4333 10 12C10 12.5667 10.1917 13.0417 10.575 13.425C10.9583 13.8083 11.4333 14 12 14Z" fill="black"/>
</svg>
