<svg width="43" height="52" viewBox="0 0 43 52" fill="none" xmlns="http://www.w3.org/2000/svg">
<path d="M25.0833 52L20.3056 51.0095L22.2167 40.3619L13.6167 33.6762L10.5111 19.5619L5.25556 24.2667L7.16667 33.6762L2.38889 34.6667L0 22.5333L10.6306 12.6905C11.5463 11.8651 12.6313 11.5246 13.8854 11.669C15.1396 11.8135 16.344 12.1333 17.4986 12.6286C18.7727 13.2063 20.0965 13.619 21.4701 13.8667C22.8438 14.1143 24.2273 14.1349 25.6208 13.9286C27.0144 13.7222 28.2984 13.2476 29.4729 12.5048C30.6475 11.7619 31.7722 10.9365 32.8472 10.0286L35.8333 13.8667C34.6389 14.8159 33.4046 15.7032 32.1306 16.5286C30.8565 17.354 29.4829 17.9937 28.0097 18.4476C26.6958 18.819 25.372 19.0151 24.0382 19.0357C22.7044 19.0563 21.3806 18.9016 20.0667 18.5714L21.7389 26.2476L30.5778 24.5143L43 33.6762L40.1333 37.6381L29.8611 30.2095L21.2611 31.9429L27.7111 36.8952L25.0833 52ZM11.9444 9.90476C10.6306 9.90476 9.50579 9.41984 8.57014 8.45C7.63449 7.48016 7.16667 6.31429 7.16667 4.95238C7.16667 3.59048 7.63449 2.4246 8.57014 1.45476C9.50579 0.484921 10.6306 0 11.9444 0C13.2583 0 14.3831 0.484921 15.3188 1.45476C16.2544 2.4246 16.7222 3.59048 16.7222 4.95238C16.7222 6.31429 16.2544 7.48016 15.3188 8.45C14.3831 9.41984 13.2583 9.90476 11.9444 9.90476Z" fill="black"/>
</svg>
